<svg width="1200" height="630" viewBox="0 0 1200 630" fill="none" xmlns="http://www.w3.org/2000/svg">
  <rect width="1200" height="630" fill="#F3EFE6"/>
  <rect x="28" y="28" width="1144" height="574" rx="28" fill="#FFFDF8" stroke="#D6CCBC" stroke-width="2"/>
  <path d="M0 430C164 348 258 336 402 376C546 416 618 480 778 482C938 484 1044 420 1200 306V630H0V430Z" fill="#D8E7F0"/>
  <path d="M0 492C129 442 244 440 355 470C482 504 563 552 726 552C889 552 1030 505 1200 420V630H0V492Z" fill="#F0D4BF"/>
  <path d="M86 112H1114" stroke="#123F5D" stroke-opacity="0.1" stroke-width="2"/>
  <path d="M86 168H1114" stroke="#123F5D" stroke-opacity="0.1" stroke-width="2"/>
  <path d="M86 224H1114" stroke="#123F5D" stroke-opacity="0.1" stroke-width="2"/>
  <path d="M86 280H1114" stroke="#123F5D" stroke-opacity="0.1" stroke-width="2"/>
  <rect x="88" y="88" width="86" height="86" rx="22" fill="#123F5D"/>
  <text x="131" y="143" fill="white" font-family="Georgia, serif" font-size="34" font-weight="700" text-anchor="middle">WP</text>
  <text x="88" y="242" fill="#B96131" font-family="Arial, sans-serif" font-size="20" font-weight="700" letter-spacing="4">LOCAL EVENTS IN WHITE PLAINS</text>
  <text x="88" y="326" fill="#162432" font-family="Georgia, serif" font-size="64" font-weight="700">White Plains Council</text>
  <text x="88" y="394" fill="#162432" font-family="Georgia, serif" font-size="64" font-weight="700">of Neighborhood Associations</text>
  <text x="88" y="464" fill="#586474" font-family="Arial, sans-serif" font-size="28">Clean event listings for residents, neighborhoods, and civic life.</text>
</svg>

