<svg width="800" height="450" viewBox="0 0 800 450" fill="none" xmlns="http://www.w3.org/2000/svg">
  <rect width="800" height="450" fill="#F0D4BF"/>
  <rect x="60" y="60" width="680" height="330" rx="30" fill="#FFFDF8"/>
  <circle cx="276" cy="214" r="42" fill="#123F5D"/>
  <circle cx="400" cy="184" r="54" fill="#1F6A4F"/>
  <circle cx="528" cy="214" r="42" fill="#B96131"/>
  <path d="M216 314C232 275 260 256 300 256C340 256 368 275 384 314" stroke="#123F5D" stroke-width="18" stroke-linecap="round"/>
  <path d="M328 326C348 272 383 244 435 244C487 244 522 272 542 326" stroke="#1F6A4F" stroke-width="20" stroke-linecap="round"/>
  <path d="M468 314C484 275 512 256 552 256C592 256 620 275 636 314" stroke="#B96131" stroke-width="18" stroke-linecap="round"/>
</svg>

