<svg xmlns="http://www.w3.org/2000/svg" viewBox="0 0 1600 1000" role="img" aria-labelledby="title desc">
  <title id="title">Fisher Hill placeholder graphic</title>
  <desc id="desc">Abstract placeholder artwork for Fisher Hill.</desc>
  <defs>
    <linearGradient id="bg" x1="0" y1="0" x2="1" y2="1">
      <stop offset="0%" stop-color="#eef3f8"/>
      <stop offset="100%" stop-color="#d8e2ee"/>
    </linearGradient>
  </defs>
  <rect width="1600" height="1000" fill="url(#bg)"/>
  <g fill="none" stroke="#8ea4ba" stroke-width="6" opacity=".65">
    <path d="M120 210h520l110 94h394l176 134"/>
    <path d="M218 760h500l156-116h370l126-88"/>
    <path d="M338 126v748"/>
    <path d="M694 94v812"/>
    <path d="M1040 170v670"/>
  </g>
  <g fill="none" stroke="#103b62" stroke-width="16" opacity=".92">
    <path d="M160 542h340l156-120h308l208-154h248"/>
    <path d="M944 154 742 308 570 440 356 600 160 746"/>
  </g>
  <g fill="#103b62">
    <circle cx="742" cy="308" r="20"/>
    <circle cx="570" cy="440" r="20"/>
    <circle cx="356" cy="600" r="20"/>
  </g>
  <rect x="72" y="792" width="404" height="126" rx="18" fill="#ffffff" opacity=".94"/>
  <text x="120" y="850" fill="#103b62" font-family="Inter, Arial, sans-serif" font-size="52" font-weight="700">Fisher Hill</text>
  <text x="120" y="892" fill="#5a6d80" font-family="Inter, Arial, sans-serif" font-size="28">White Plains neighborhood placeholder</text>
</svg>
