<svg xmlns="http://www.w3.org/2000/svg" viewBox="0 0 1600 1000" role="img" aria-labelledby="title desc">
  <title id="title">The Highlands placeholder graphic</title>
  <desc id="desc">Abstract placeholder artwork for The Highlands.</desc>
  <defs>
    <linearGradient id="bg" x1="0" y1="0" x2="1" y2="1">
      <stop offset="0%" stop-color="#edf4f9"/>
      <stop offset="100%" stop-color="#d3e0ec"/>
    </linearGradient>
  </defs>
  <rect width="1600" height="1000" fill="url(#bg)"/>
  <g fill="none" stroke="#91a9bc" stroke-width="6" opacity=".6">
    <path d="M138 242c224 0 344-106 520-106s246 118 402 118 216-72 402-72"/>
    <path d="M108 708c190 0 302-92 484-92s280 100 458 100 236-74 442-74"/>
    <path d="M252 142v732"/>
    <path d="M558 94v812"/>
    <path d="M914 126v746"/>
    <path d="M1248 182v650"/>
  </g>
  <g fill="none" stroke="#103b62" stroke-width="16" opacity=".92">
    <path d="M128 624c194 0 322-140 486-140s264 126 430 126 238-92 428-92"/>
    <path d="M264 152c84 110 150 178 264 258 90 62 154 92 252 140 148 72 240 88 492 100"/>
  </g>
  <g fill="#0f5f7c" opacity=".92">
    <circle cx="614" cy="498" r="20"/>
    <circle cx="1042" cy="610" r="20"/>
    <circle cx="1336" cy="608" r="20"/>
  </g>
  <rect x="72" y="792" width="452" height="126" rx="18" fill="#ffffff" opacity=".94"/>
  <text x="120" y="850" fill="#103b62" font-family="Inter, Arial, sans-serif" font-size="52" font-weight="700">The Highlands</text>
  <text x="120" y="892" fill="#5a6d80" font-family="Inter, Arial, sans-serif" font-size="28">White Plains neighborhood placeholder</text>
</svg>
