<svg xmlns="http://www.w3.org/2000/svg" viewBox="0 0 1600 900" role="img" aria-label="Colonial Corners neighborhood, Gedney and the South Side, White Plains">
  <defs>
    <linearGradient id="g1" x1="0" y1="0" x2="1" y2="1">
      <stop offset="0" stop-color="#0c2a2a"/>
      <stop offset="0.6" stop-color="#0f766e"/>
      <stop offset="1" stop-color="#14b8a6"/>
    </linearGradient>
    <linearGradient id="g2" x1="0" y1="0" x2="0" y2="1">
      <stop offset="0" stop-color="#ffffff" stop-opacity="0.0"/>
      <stop offset="1" stop-color="#ffffff" stop-opacity="0.35"/>
    </linearGradient>
  </defs>
  <rect width="1600" height="900" fill="url(#g1)"/>
  <g transform="rotate(320 800 450)">
          <rect x="-200" y="620" width="2000" height="160" fill="url(#g2)" opacity="0.5"/>
        </g>
        <circle cx="737" cy="620" r="355" fill="#fcd34d" opacity="0.35"/>
  <rect x="0" y="641" width="56" height="259" fill="#000" opacity="0.35"/><rect x="60" y="695" width="34" height="205" fill="#000" opacity="0.35"/><rect x="98" y="649" width="70" height="251" fill="#000" opacity="0.35"/><rect x="172" y="635" width="68" height="265" fill="#000" opacity="0.35"/><rect x="244" y="745" width="26" height="155" fill="#000" opacity="0.35"/><rect x="274" y="699" width="84" height="201" fill="#000" opacity="0.35"/><rect x="362" y="621" width="42" height="279" fill="#000" opacity="0.35"/><rect x="408" y="659" width="82" height="241" fill="#000" opacity="0.35"/><rect x="494" y="681" width="44" height="219" fill="#000" opacity="0.35"/><rect x="542" y="719" width="38" height="181" fill="#000" opacity="0.35"/><rect x="584" y="685" width="88" height="215" fill="#000" opacity="0.35"/><rect x="676" y="659" width="42" height="241" fill="#000" opacity="0.35"/><rect x="722" y="669" width="64" height="231" fill="#000" opacity="0.35"/><rect x="790" y="703" width="50" height="197" fill="#000" opacity="0.35"/><rect x="844" y="749" width="82" height="151" fill="#000" opacity="0.35"/><rect x="930" y="627" width="80" height="273" fill="#000" opacity="0.35"/><rect x="1014" y="629" width="86" height="271" fill="#000" opacity="0.35"/><rect x="1104" y="711" width="58" height="189" fill="#000" opacity="0.35"/><rect x="1166" y="649" width="50" height="251" fill="#000" opacity="0.35"/><rect x="1220" y="743" width="28" height="157" fill="#000" opacity="0.35"/><rect x="1252" y="713" width="28" height="187" fill="#000" opacity="0.35"/><rect x="1284" y="739" width="44" height="161" fill="#000" opacity="0.35"/><rect x="1332" y="685" width="72" height="215" fill="#000" opacity="0.35"/><rect x="1408" y="639" width="72" height="261" fill="#000" opacity="0.35"/><rect x="1484" y="733" width="40" height="167" fill="#000" opacity="0.35"/><rect x="1528" y="675" width="88" height="225" fill="#000" opacity="0.35"/>
  <g font-family="DM Sans, system-ui, -apple-system, Segoe UI, Roboto, sans-serif" fill="#ffffff">
    <text x="80" y="200" font-size="34" font-weight="500" opacity="0.85">White Plains</text>
    <text x="80" y="200" dx="280" font-size="34" font-weight="500" opacity="0.6">Gedney and the South Side</text>
    <text x="80" y="380" font-size="92" font-weight="700" letter-spacing="-1">Colonial Corners</text>
    <line x1="80" y1="430" x2="320" y2="430" stroke="#fcd34d" stroke-width="8"/>
    <text x="80" y="500" font-size="32" font-weight="500" opacity="0.85">A WPCNA neighborhood guide</text>
  </g>
</svg>
