<svg xmlns="http://www.w3.org/2000/svg" viewBox="0 0 1600 900" role="img" aria-label="Ferris Avenue neighborhood, West Side and Near-Downtown Neighborhoods, White Plains">
  <defs>
    <linearGradient id="g1" x1="0" y1="0" x2="1" y2="1">
      <stop offset="0" stop-color="#0f2c1e"/>
      <stop offset="0.6" stop-color="#166534"/>
      <stop offset="1" stop-color="#22c55e"/>
    </linearGradient>
    <linearGradient id="g2" x1="0" y1="0" x2="0" y2="1">
      <stop offset="0" stop-color="#ffffff" stop-opacity="0.0"/>
      <stop offset="1" stop-color="#ffffff" stop-opacity="0.35"/>
    </linearGradient>
  </defs>
  <rect width="1600" height="900" fill="url(#g1)"/>
  <g transform="rotate(331 800 450)">
          <rect x="-200" y="423" width="2000" height="160" fill="url(#g2)" opacity="0.5"/>
        </g>
        <circle cx="728" cy="423" r="341" fill="#fde68a" opacity="0.35"/>
  <rect x="0" y="711" width="44" height="189" fill="#000" opacity="0.35"/><rect x="48" y="649" width="90" height="251" fill="#000" opacity="0.35"/><rect x="142" y="707" width="40" height="193" fill="#000" opacity="0.35"/><rect x="186" y="685" width="32" height="215" fill="#000" opacity="0.35"/><rect x="222" y="647" width="72" height="253" fill="#000" opacity="0.35"/><rect x="298" y="637" width="90" height="263" fill="#000" opacity="0.35"/><rect x="392" y="611" width="40" height="289" fill="#000" opacity="0.35"/><rect x="436" y="725" width="30" height="175" fill="#000" opacity="0.35"/><rect x="470" y="635" width="62" height="265" fill="#000" opacity="0.35"/><rect x="536" y="665" width="76" height="235" fill="#000" opacity="0.35"/><rect x="616" y="671" width="40" height="229" fill="#000" opacity="0.35"/><rect x="660" y="657" width="64" height="243" fill="#000" opacity="0.35"/><rect x="728" y="643" width="92" height="257" fill="#000" opacity="0.35"/><rect x="824" y="613" width="44" height="287" fill="#000" opacity="0.35"/><rect x="872" y="627" width="50" height="273" fill="#000" opacity="0.35"/><rect x="926" y="681" width="72" height="219" fill="#000" opacity="0.35"/><rect x="1002" y="703" width="64" height="197" fill="#000" opacity="0.35"/><rect x="1070" y="733" width="90" height="167" fill="#000" opacity="0.35"/><rect x="1164" y="699" width="48" height="201" fill="#000" opacity="0.35"/><rect x="1216" y="677" width="90" height="223" fill="#000" opacity="0.35"/><rect x="1310" y="643" width="32" height="257" fill="#000" opacity="0.35"/><rect x="1346" y="709" width="78" height="191" fill="#000" opacity="0.35"/><rect x="1428" y="703" width="78" height="197" fill="#000" opacity="0.35"/><rect x="1510" y="633" width="62" height="267" fill="#000" opacity="0.35"/><rect x="1576" y="659" width="26" height="241" fill="#000" opacity="0.35"/>
  <g font-family="DM Sans, system-ui, -apple-system, Segoe UI, Roboto, sans-serif" fill="#ffffff">
    <text x="80" y="200" font-size="34" font-weight="500" opacity="0.85">White Plains</text>
    <text x="80" y="200" dx="280" font-size="34" font-weight="500" opacity="0.6">West Side and Near-Downtown Neighborhoods</text>
    <text x="80" y="380" font-size="116" font-weight="700" letter-spacing="-1">Ferris Avenue</text>
    <line x1="80" y1="430" x2="320" y2="430" stroke="#fde68a" stroke-width="8"/>
    <text x="80" y="500" font-size="32" font-weight="500" opacity="0.85">A WPCNA neighborhood guide</text>
  </g>
</svg>
