<svg xmlns="http://www.w3.org/2000/svg" viewBox="0 0 1600 900" role="img" aria-label="Gedney Meadows neighborhood, Gedney and the South Side, White Plains">
  <defs>
    <linearGradient id="g1" x1="0" y1="0" x2="1" y2="1">
      <stop offset="0" stop-color="#0c2a2a"/>
      <stop offset="0.6" stop-color="#0f766e"/>
      <stop offset="1" stop-color="#14b8a6"/>
    </linearGradient>
    <linearGradient id="g2" x1="0" y1="0" x2="0" y2="1">
      <stop offset="0" stop-color="#ffffff" stop-opacity="0.0"/>
      <stop offset="1" stop-color="#ffffff" stop-opacity="0.35"/>
    </linearGradient>
  </defs>
  <rect width="1600" height="900" fill="url(#g1)"/>
  <rect x="0" y="328" width="1600" height="572" fill="url(#g2)" opacity="0.45"/>
        <circle cx="359" cy="328" r="339" fill="#fcd34d" opacity="0.4"/>
  <rect x="0" y="634" width="57" height="266" fill="#000" opacity="0.35"/><rect x="61" y="716" width="27" height="184" fill="#000" opacity="0.35"/><rect x="92" y="702" width="73" height="198" fill="#000" opacity="0.35"/><rect x="169" y="744" width="47" height="156" fill="#000" opacity="0.35"/><rect x="220" y="714" width="51" height="186" fill="#000" opacity="0.35"/><rect x="275" y="644" width="39" height="256" fill="#000" opacity="0.35"/><rect x="318" y="614" width="95" height="286" fill="#000" opacity="0.35"/><rect x="417" y="664" width="71" height="236" fill="#000" opacity="0.35"/><rect x="492" y="666" width="93" height="234" fill="#000" opacity="0.35"/><rect x="589" y="692" width="31" height="208" fill="#000" opacity="0.35"/><rect x="624" y="670" width="53" height="230" fill="#000" opacity="0.35"/><rect x="681" y="732" width="63" height="168" fill="#000" opacity="0.35"/><rect x="748" y="710" width="41" height="190" fill="#000" opacity="0.35"/><rect x="793" y="644" width="63" height="256" fill="#000" opacity="0.35"/><rect x="860" y="622" width="67" height="278" fill="#000" opacity="0.35"/><rect x="931" y="636" width="41" height="264" fill="#000" opacity="0.35"/><rect x="976" y="630" width="91" height="270" fill="#000" opacity="0.35"/><rect x="1071" y="720" width="31" height="180" fill="#000" opacity="0.35"/><rect x="1106" y="706" width="79" height="194" fill="#000" opacity="0.35"/><rect x="1189" y="636" width="57" height="264" fill="#000" opacity="0.35"/><rect x="1250" y="714" width="69" height="186" fill="#000" opacity="0.35"/><rect x="1323" y="680" width="71" height="220" fill="#000" opacity="0.35"/><rect x="1398" y="646" width="67" height="254" fill="#000" opacity="0.35"/><rect x="1469" y="684" width="69" height="216" fill="#000" opacity="0.35"/><rect x="1542" y="658" width="33" height="242" fill="#000" opacity="0.35"/><rect x="1579" y="652" width="59" height="248" fill="#000" opacity="0.35"/>
  <g font-family="DM Sans, system-ui, -apple-system, Segoe UI, Roboto, sans-serif" fill="#ffffff">
    <text x="80" y="200" font-size="34" font-weight="500" opacity="0.85">White Plains</text>
    <text x="80" y="200" dx="280" font-size="34" font-weight="500" opacity="0.6">Gedney and the South Side</text>
    <text x="80" y="380" font-size="116" font-weight="700" letter-spacing="-1">Gedney Meadows</text>
    <line x1="80" y1="430" x2="320" y2="430" stroke="#fcd34d" stroke-width="8"/>
    <text x="80" y="500" font-size="32" font-weight="500" opacity="0.85">A WPCNA neighborhood guide</text>
  </g>
</svg>
