<svg xmlns="http://www.w3.org/2000/svg" viewBox="0 0 1600 900" role="img" aria-label="Gedney Circle neighborhood, Gedney and the South Side, White Plains">
  <defs>
    <linearGradient id="g1" x1="0" y1="0" x2="1" y2="1">
      <stop offset="0" stop-color="#0c2a2a"/>
      <stop offset="0.6" stop-color="#0f766e"/>
      <stop offset="1" stop-color="#14b8a6"/>
    </linearGradient>
    <linearGradient id="g2" x1="0" y1="0" x2="0" y2="1">
      <stop offset="0" stop-color="#ffffff" stop-opacity="0.0"/>
      <stop offset="1" stop-color="#ffffff" stop-opacity="0.35"/>
    </linearGradient>
  </defs>
  <rect width="1600" height="900" fill="url(#g1)"/>
  <g transform="rotate(142 800 450)">
          <rect x="-200" y="588" width="2000" height="160" fill="url(#g2)" opacity="0.5"/>
        </g>
        <circle cx="889" cy="588" r="361" fill="#fcd34d" opacity="0.35"/>
  <rect x="0" y="667" width="48" height="233" fill="#000" opacity="0.35"/><rect x="52" y="689" width="76" height="211" fill="#000" opacity="0.35"/><rect x="132" y="723" width="48" height="177" fill="#000" opacity="0.35"/><rect x="184" y="745" width="44" height="155" fill="#000" opacity="0.35"/><rect x="232" y="635" width="86" height="265" fill="#000" opacity="0.35"/><rect x="322" y="745" width="80" height="155" fill="#000" opacity="0.35"/><rect x="406" y="655" width="28" height="245" fill="#000" opacity="0.35"/><rect x="438" y="613" width="68" height="287" fill="#000" opacity="0.35"/><rect x="510" y="659" width="70" height="241" fill="#000" opacity="0.35"/><rect x="584" y="673" width="30" height="227" fill="#000" opacity="0.35"/><rect x="618" y="667" width="88" height="233" fill="#000" opacity="0.35"/><rect x="710" y="689" width="90" height="211" fill="#000" opacity="0.35"/><rect x="804" y="711" width="56" height="189" fill="#000" opacity="0.35"/><rect x="864" y="721" width="54" height="179" fill="#000" opacity="0.35"/><rect x="922" y="647" width="44" height="253" fill="#000" opacity="0.35"/><rect x="970" y="721" width="74" height="179" fill="#000" opacity="0.35"/><rect x="1048" y="667" width="42" height="233" fill="#000" opacity="0.35"/><rect x="1094" y="613" width="86" height="287" fill="#000" opacity="0.35"/><rect x="1184" y="691" width="62" height="209" fill="#000" opacity="0.35"/><rect x="1250" y="629" width="64" height="271" fill="#000" opacity="0.35"/><rect x="1318" y="619" width="68" height="281" fill="#000" opacity="0.35"/><rect x="1390" y="717" width="52" height="183" fill="#000" opacity="0.35"/><rect x="1446" y="635" width="48" height="265" fill="#000" opacity="0.35"/><rect x="1498" y="629" width="48" height="271" fill="#000" opacity="0.35"/><rect x="1550" y="711" width="94" height="189" fill="#000" opacity="0.35"/>
  <g font-family="DM Sans, system-ui, -apple-system, Segoe UI, Roboto, sans-serif" fill="#ffffff">
    <text x="80" y="200" font-size="34" font-weight="500" opacity="0.85">White Plains</text>
    <text x="80" y="200" dx="280" font-size="34" font-weight="500" opacity="0.6">Gedney and the South Side</text>
    <text x="80" y="380" font-size="116" font-weight="700" letter-spacing="-1">Gedney Circle</text>
    <line x1="80" y1="430" x2="320" y2="430" stroke="#fcd34d" stroke-width="8"/>
    <text x="80" y="500" font-size="32" font-weight="500" opacity="0.85">A WPCNA neighborhood guide</text>
  </g>
</svg>
