<svg xmlns="http://www.w3.org/2000/svg" viewBox="0 0 1600 900" role="img" aria-label="Gedney Manor neighborhood, Gedney and the South Side, White Plains">
  <defs>
    <linearGradient id="g1" x1="0" y1="0" x2="1" y2="1">
      <stop offset="0" stop-color="#0c2a2a"/>
      <stop offset="0.6" stop-color="#0f766e"/>
      <stop offset="1" stop-color="#14b8a6"/>
    </linearGradient>
    <linearGradient id="g2" x1="0" y1="0" x2="0" y2="1">
      <stop offset="0" stop-color="#ffffff" stop-opacity="0.0"/>
      <stop offset="1" stop-color="#ffffff" stop-opacity="0.35"/>
    </linearGradient>
  </defs>
  <rect width="1600" height="900" fill="url(#g1)"/>
  <circle cx="624" cy="498" r="434" fill="url(#g2)" opacity="0.55"/>
        <circle cx="976" cy="402" r="156" fill="#fcd34d" opacity="0.35"/>
  <rect x="0" y="692" width="93" height="208" fill="#000" opacity="0.35"/><rect x="97" y="622" width="77" height="278" fill="#000" opacity="0.35"/><rect x="178" y="688" width="59" height="212" fill="#000" opacity="0.35"/><rect x="241" y="698" width="67" height="202" fill="#000" opacity="0.35"/><rect x="312" y="616" width="59" height="284" fill="#000" opacity="0.35"/><rect x="375" y="710" width="47" height="190" fill="#000" opacity="0.35"/><rect x="426" y="660" width="65" height="240" fill="#000" opacity="0.35"/><rect x="495" y="626" width="95" height="274" fill="#000" opacity="0.35"/><rect x="594" y="652" width="95" height="248" fill="#000" opacity="0.35"/><rect x="693" y="706" width="47" height="194" fill="#000" opacity="0.35"/><rect x="744" y="676" width="95" height="224" fill="#000" opacity="0.35"/><rect x="843" y="658" width="87" height="242" fill="#000" opacity="0.35"/><rect x="934" y="640" width="53" height="260" fill="#000" opacity="0.35"/><rect x="991" y="618" width="67" height="282" fill="#000" opacity="0.35"/><rect x="1062" y="624" width="87" height="276" fill="#000" opacity="0.35"/><rect x="1153" y="694" width="51" height="206" fill="#000" opacity="0.35"/><rect x="1208" y="660" width="93" height="240" fill="#000" opacity="0.35"/><rect x="1305" y="694" width="37" height="206" fill="#000" opacity="0.35"/><rect x="1346" y="616" width="61" height="284" fill="#000" opacity="0.35"/><rect x="1411" y="698" width="29" height="202" fill="#000" opacity="0.35"/><rect x="1444" y="688" width="45" height="212" fill="#000" opacity="0.35"/><rect x="1493" y="738" width="89" height="162" fill="#000" opacity="0.35"/><rect x="1586" y="616" width="31" height="284" fill="#000" opacity="0.35"/>
  <g font-family="DM Sans, system-ui, -apple-system, Segoe UI, Roboto, sans-serif" fill="#ffffff">
    <text x="80" y="200" font-size="34" font-weight="500" opacity="0.85">White Plains</text>
    <text x="80" y="200" dx="280" font-size="34" font-weight="500" opacity="0.6">Gedney and the South Side</text>
    <text x="80" y="380" font-size="116" font-weight="700" letter-spacing="-1">Gedney Manor</text>
    <line x1="80" y1="430" x2="320" y2="430" stroke="#fcd34d" stroke-width="8"/>
    <text x="80" y="500" font-size="32" font-weight="500" opacity="0.85">A WPCNA neighborhood guide</text>
  </g>
</svg>
