<svg xmlns="http://www.w3.org/2000/svg" viewBox="0 0 1600 900" role="img" aria-label="Gedney Commons neighborhood, Gedney and the South Side, White Plains">
  <defs>
    <linearGradient id="g1" x1="0" y1="0" x2="1" y2="1">
      <stop offset="0" stop-color="#0c2a2a"/>
      <stop offset="0.6" stop-color="#0f766e"/>
      <stop offset="1" stop-color="#14b8a6"/>
    </linearGradient>
    <linearGradient id="g2" x1="0" y1="0" x2="0" y2="1">
      <stop offset="0" stop-color="#ffffff" stop-opacity="0.0"/>
      <stop offset="1" stop-color="#ffffff" stop-opacity="0.35"/>
    </linearGradient>
  </defs>
  <rect width="1600" height="900" fill="url(#g1)"/>
  <polygon points="141,407 697,407 897,963 -59,963" fill="url(#g2)" opacity="0.5"/>
        <circle cx="1181" cy="685" r="139" fill="#fcd34d" opacity="0.4"/>
  <rect x="0" y="681" width="30" height="219" fill="#000" opacity="0.35"/><rect x="34" y="679" width="36" height="221" fill="#000" opacity="0.35"/><rect x="74" y="705" width="46" height="195" fill="#000" opacity="0.35"/><rect x="124" y="731" width="26" height="169" fill="#000" opacity="0.35"/><rect x="154" y="629" width="92" height="271" fill="#000" opacity="0.35"/><rect x="250" y="667" width="28" height="233" fill="#000" opacity="0.35"/><rect x="282" y="657" width="46" height="243" fill="#000" opacity="0.35"/><rect x="332" y="695" width="34" height="205" fill="#000" opacity="0.35"/><rect x="370" y="689" width="70" height="211" fill="#000" opacity="0.35"/><rect x="444" y="675" width="72" height="225" fill="#000" opacity="0.35"/><rect x="520" y="701" width="40" height="199" fill="#000" opacity="0.35"/><rect x="564" y="647" width="80" height="253" fill="#000" opacity="0.35"/><rect x="648" y="665" width="52" height="235" fill="#000" opacity="0.35"/><rect x="704" y="747" width="38" height="153" fill="#000" opacity="0.35"/><rect x="746" y="673" width="62" height="227" fill="#000" opacity="0.35"/><rect x="812" y="671" width="52" height="229" fill="#000" opacity="0.35"/><rect x="868" y="729" width="80" height="171" fill="#000" opacity="0.35"/><rect x="952" y="639" width="26" height="261" fill="#000" opacity="0.35"/><rect x="982" y="673" width="94" height="227" fill="#000" opacity="0.35"/><rect x="1080" y="687" width="74" height="213" fill="#000" opacity="0.35"/><rect x="1158" y="677" width="54" height="223" fill="#000" opacity="0.35"/><rect x="1216" y="699" width="34" height="201" fill="#000" opacity="0.35"/><rect x="1254" y="641" width="68" height="259" fill="#000" opacity="0.35"/><rect x="1326" y="699" width="48" height="201" fill="#000" opacity="0.35"/><rect x="1378" y="709" width="30" height="191" fill="#000" opacity="0.35"/><rect x="1412" y="723" width="62" height="177" fill="#000" opacity="0.35"/><rect x="1478" y="705" width="58" height="195" fill="#000" opacity="0.35"/><rect x="1540" y="743" width="82" height="157" fill="#000" opacity="0.35"/>
  <g font-family="DM Sans, system-ui, -apple-system, Segoe UI, Roboto, sans-serif" fill="#ffffff">
    <text x="80" y="200" font-size="34" font-weight="500" opacity="0.85">White Plains</text>
    <text x="80" y="200" dx="280" font-size="34" font-weight="500" opacity="0.6">Gedney and the South Side</text>
    <text x="80" y="380" font-size="116" font-weight="700" letter-spacing="-1">Gedney Commons</text>
    <line x1="80" y1="430" x2="320" y2="430" stroke="#fcd34d" stroke-width="8"/>
    <text x="80" y="500" font-size="32" font-weight="500" opacity="0.85">A WPCNA neighborhood guide</text>
  </g>
</svg>
