<svg xmlns="http://www.w3.org/2000/svg" viewBox="0 0 1600 900" role="img" aria-label="Holbrooke neighborhood, Gedney and the South Side, White Plains">
  <defs>
    <linearGradient id="g1" x1="0" y1="0" x2="1" y2="1">
      <stop offset="0" stop-color="#0c2a2a"/>
      <stop offset="0.6" stop-color="#0f766e"/>
      <stop offset="1" stop-color="#14b8a6"/>
    </linearGradient>
    <linearGradient id="g2" x1="0" y1="0" x2="0" y2="1">
      <stop offset="0" stop-color="#ffffff" stop-opacity="0.0"/>
      <stop offset="1" stop-color="#ffffff" stop-opacity="0.35"/>
    </linearGradient>
  </defs>
  <rect width="1600" height="900" fill="url(#g1)"/>
  <circle cx="732" cy="648" r="392" fill="url(#g2)" opacity="0.55"/>
        <circle cx="868" cy="252" r="351" fill="#fcd34d" opacity="0.35"/>
  <rect x="0" y="639" width="58" height="261" fill="#000" opacity="0.35"/><rect x="62" y="613" width="54" height="287" fill="#000" opacity="0.35"/><rect x="120" y="743" width="48" height="157" fill="#000" opacity="0.35"/><rect x="172" y="613" width="26" height="287" fill="#000" opacity="0.35"/><rect x="202" y="663" width="62" height="237" fill="#000" opacity="0.35"/><rect x="268" y="733" width="74" height="167" fill="#000" opacity="0.35"/><rect x="346" y="615" width="44" height="285" fill="#000" opacity="0.35"/><rect x="394" y="697" width="84" height="203" fill="#000" opacity="0.35"/><rect x="482" y="707" width="92" height="193" fill="#000" opacity="0.35"/><rect x="578" y="729" width="34" height="171" fill="#000" opacity="0.35"/><rect x="616" y="687" width="90" height="213" fill="#000" opacity="0.35"/><rect x="710" y="741" width="74" height="159" fill="#000" opacity="0.35"/><rect x="788" y="715" width="36" height="185" fill="#000" opacity="0.35"/><rect x="828" y="613" width="50" height="287" fill="#000" opacity="0.35"/><rect x="882" y="619" width="40" height="281" fill="#000" opacity="0.35"/><rect x="926" y="677" width="80" height="223" fill="#000" opacity="0.35"/><rect x="1010" y="679" width="30" height="221" fill="#000" opacity="0.35"/><rect x="1044" y="637" width="26" height="263" fill="#000" opacity="0.35"/><rect x="1074" y="723" width="86" height="177" fill="#000" opacity="0.35"/><rect x="1164" y="733" width="68" height="167" fill="#000" opacity="0.35"/><rect x="1236" y="739" width="64" height="161" fill="#000" opacity="0.35"/><rect x="1304" y="645" width="42" height="255" fill="#000" opacity="0.35"/><rect x="1350" y="683" width="28" height="217" fill="#000" opacity="0.35"/><rect x="1382" y="749" width="46" height="151" fill="#000" opacity="0.35"/><rect x="1432" y="731" width="52" height="169" fill="#000" opacity="0.35"/><rect x="1488" y="649" width="78" height="251" fill="#000" opacity="0.35"/><rect x="1570" y="639" width="54" height="261" fill="#000" opacity="0.35"/>
  <g font-family="DM Sans, system-ui, -apple-system, Segoe UI, Roboto, sans-serif" fill="#ffffff">
    <text x="80" y="200" font-size="34" font-weight="500" opacity="0.85">White Plains</text>
    <text x="80" y="200" dx="280" font-size="34" font-weight="500" opacity="0.6">Gedney and the South Side</text>
    <text x="80" y="380" font-size="116" font-weight="700" letter-spacing="-1">Holbrooke</text>
    <line x1="80" y1="430" x2="320" y2="430" stroke="#fcd34d" stroke-width="8"/>
    <text x="80" y="500" font-size="32" font-weight="500" opacity="0.85">A WPCNA neighborhood guide</text>
  </g>
</svg>
