<svg xmlns="http://www.w3.org/2000/svg" viewBox="0 0 1600 900" role="img" aria-label="North Street neighborhood, East Side and Institutional Anchors, White Plains">
  <defs>
    <linearGradient id="g1" x1="0" y1="0" x2="1" y2="1">
      <stop offset="0" stop-color="#3b1d10"/>
      <stop offset="0.6" stop-color="#9a3412"/>
      <stop offset="1" stop-color="#dc6b20"/>
    </linearGradient>
    <linearGradient id="g2" x1="0" y1="0" x2="0" y2="1">
      <stop offset="0" stop-color="#ffffff" stop-opacity="0.0"/>
      <stop offset="1" stop-color="#ffffff" stop-opacity="0.35"/>
    </linearGradient>
  </defs>
  <rect width="1600" height="900" fill="url(#g1)"/>
  <rect x="0" y="411" width="1600" height="489" fill="url(#g2)" opacity="0.45"/>
        <circle cx="1156" cy="411" r="351" fill="#fde68a" opacity="0.4"/>
  <rect x="0" y="734" width="59" height="166" fill="#000" opacity="0.35"/><rect x="63" y="688" width="49" height="212" fill="#000" opacity="0.35"/><rect x="116" y="638" width="87" height="262" fill="#000" opacity="0.35"/><rect x="207" y="696" width="85" height="204" fill="#000" opacity="0.35"/><rect x="296" y="678" width="61" height="222" fill="#000" opacity="0.35"/><rect x="361" y="728" width="79" height="172" fill="#000" opacity="0.35"/><rect x="444" y="634" width="85" height="266" fill="#000" opacity="0.35"/><rect x="533" y="652" width="83" height="248" fill="#000" opacity="0.35"/><rect x="620" y="686" width="37" height="214" fill="#000" opacity="0.35"/><rect x="661" y="688" width="75" height="212" fill="#000" opacity="0.35"/><rect x="740" y="630" width="73" height="270" fill="#000" opacity="0.35"/><rect x="817" y="648" width="67" height="252" fill="#000" opacity="0.35"/><rect x="888" y="730" width="35" height="170" fill="#000" opacity="0.35"/><rect x="927" y="744" width="29" height="156" fill="#000" opacity="0.35"/><rect x="960" y="750" width="95" height="150" fill="#000" opacity="0.35"/><rect x="1059" y="656" width="71" height="244" fill="#000" opacity="0.35"/><rect x="1134" y="686" width="45" height="214" fill="#000" opacity="0.35"/><rect x="1183" y="684" width="89" height="216" fill="#000" opacity="0.35"/><rect x="1276" y="634" width="77" height="266" fill="#000" opacity="0.35"/><rect x="1357" y="692" width="71" height="208" fill="#000" opacity="0.35"/><rect x="1432" y="706" width="65" height="194" fill="#000" opacity="0.35"/><rect x="1501" y="692" width="35" height="208" fill="#000" opacity="0.35"/><rect x="1540" y="742" width="83" height="158" fill="#000" opacity="0.35"/>
  <g font-family="DM Sans, system-ui, -apple-system, Segoe UI, Roboto, sans-serif" fill="#ffffff">
    <text x="80" y="200" font-size="34" font-weight="500" opacity="0.85">White Plains</text>
    <text x="80" y="200" dx="280" font-size="34" font-weight="500" opacity="0.6">East Side and Institutional Anchors</text>
    <text x="80" y="380" font-size="116" font-weight="700" letter-spacing="-1">North Street</text>
    <line x1="80" y1="430" x2="320" y2="430" stroke="#fde68a" stroke-width="8"/>
    <text x="80" y="500" font-size="32" font-weight="500" opacity="0.85">A WPCNA neighborhood guide</text>
  </g>
</svg>
