<svg xmlns="http://www.w3.org/2000/svg" viewBox="0 0 1600 900" role="img" aria-label="Old Oak Ridge neighborhood, North and Northeast, White Plains">
  <defs>
    <linearGradient id="g1" x1="0" y1="0" x2="1" y2="1">
      <stop offset="0" stop-color="#1e1a3e"/>
      <stop offset="0.6" stop-color="#4338ca"/>
      <stop offset="1" stop-color="#7c3aed"/>
    </linearGradient>
    <linearGradient id="g2" x1="0" y1="0" x2="0" y2="1">
      <stop offset="0" stop-color="#ffffff" stop-opacity="0.0"/>
      <stop offset="1" stop-color="#ffffff" stop-opacity="0.35"/>
    </linearGradient>
  </defs>
  <rect width="1600" height="900" fill="url(#g1)"/>
  <path d="M0,442 Q589,127 1600,599 L1600,900 L0,900 Z" fill="url(#g2)" opacity="0.5"/>
        <circle cx="589" cy="442" r="157" fill="#f0abfc" opacity="0.4"/>
  <rect x="0" y="694" width="31" height="206" fill="#000" opacity="0.35"/><rect x="35" y="688" width="49" height="212" fill="#000" opacity="0.35"/><rect x="88" y="670" width="77" height="230" fill="#000" opacity="0.35"/><rect x="169" y="632" width="51" height="268" fill="#000" opacity="0.35"/><rect x="224" y="690" width="57" height="210" fill="#000" opacity="0.35"/><rect x="285" y="700" width="81" height="200" fill="#000" opacity="0.35"/><rect x="370" y="746" width="67" height="154" fill="#000" opacity="0.35"/><rect x="441" y="676" width="83" height="224" fill="#000" opacity="0.35"/><rect x="528" y="746" width="63" height="154" fill="#000" opacity="0.35"/><rect x="595" y="628" width="91" height="272" fill="#000" opacity="0.35"/><rect x="690" y="626" width="61" height="274" fill="#000" opacity="0.35"/><rect x="755" y="736" width="59" height="164" fill="#000" opacity="0.35"/><rect x="818" y="618" width="53" height="282" fill="#000" opacity="0.35"/><rect x="875" y="656" width="35" height="244" fill="#000" opacity="0.35"/><rect x="914" y="746" width="95" height="154" fill="#000" opacity="0.35"/><rect x="1013" y="616" width="63" height="284" fill="#000" opacity="0.35"/><rect x="1080" y="738" width="63" height="162" fill="#000" opacity="0.35"/><rect x="1147" y="612" width="83" height="288" fill="#000" opacity="0.35"/><rect x="1234" y="738" width="95" height="162" fill="#000" opacity="0.35"/><rect x="1333" y="696" width="91" height="204" fill="#000" opacity="0.35"/><rect x="1428" y="618" width="89" height="282" fill="#000" opacity="0.35"/><rect x="1521" y="636" width="33" height="264" fill="#000" opacity="0.35"/><rect x="1558" y="654" width="91" height="246" fill="#000" opacity="0.35"/>
  <g font-family="DM Sans, system-ui, -apple-system, Segoe UI, Roboto, sans-serif" fill="#ffffff">
    <text x="80" y="200" font-size="34" font-weight="500" opacity="0.85">White Plains</text>
    <text x="80" y="200" dx="280" font-size="34" font-weight="500" opacity="0.6">North and Northeast</text>
    <text x="80" y="380" font-size="116" font-weight="700" letter-spacing="-1">Old Oak Ridge</text>
    <line x1="80" y1="430" x2="320" y2="430" stroke="#f0abfc" stroke-width="8"/>
    <text x="80" y="500" font-size="32" font-weight="500" opacity="0.85">A WPCNA neighborhood guide</text>
  </g>
</svg>
