<svg xmlns="http://www.w3.org/2000/svg" viewBox="0 0 1600 900" role="img" aria-label="Old Mamaroneck Road neighborhood, East Side and Institutional Anchors, White Plains">
  <defs>
    <linearGradient id="g1" x1="0" y1="0" x2="1" y2="1">
      <stop offset="0" stop-color="#3b1d10"/>
      <stop offset="0.6" stop-color="#9a3412"/>
      <stop offset="1" stop-color="#dc6b20"/>
    </linearGradient>
    <linearGradient id="g2" x1="0" y1="0" x2="0" y2="1">
      <stop offset="0" stop-color="#ffffff" stop-opacity="0.0"/>
      <stop offset="1" stop-color="#ffffff" stop-opacity="0.35"/>
    </linearGradient>
  </defs>
  <rect width="1600" height="900" fill="url(#g1)"/>
  <path d="M0,362 Q540,191 1600,447 L1600,900 L0,900 Z" fill="url(#g2)" opacity="0.5"/>
        <circle cx="540" cy="362" r="85" fill="#fde68a" opacity="0.4"/>
  <rect x="0" y="630" width="47" height="270" fill="#000" opacity="0.35"/><rect x="51" y="612" width="79" height="288" fill="#000" opacity="0.35"/><rect x="134" y="642" width="73" height="258" fill="#000" opacity="0.35"/><rect x="211" y="652" width="43" height="248" fill="#000" opacity="0.35"/><rect x="258" y="618" width="67" height="282" fill="#000" opacity="0.35"/><rect x="329" y="636" width="45" height="264" fill="#000" opacity="0.35"/><rect x="378" y="690" width="69" height="210" fill="#000" opacity="0.35"/><rect x="451" y="708" width="75" height="192" fill="#000" opacity="0.35"/><rect x="530" y="666" width="79" height="234" fill="#000" opacity="0.35"/><rect x="613" y="684" width="61" height="216" fill="#000" opacity="0.35"/><rect x="678" y="662" width="75" height="238" fill="#000" opacity="0.35"/><rect x="757" y="664" width="33" height="236" fill="#000" opacity="0.35"/><rect x="794" y="614" width="29" height="286" fill="#000" opacity="0.35"/><rect x="827" y="704" width="79" height="196" fill="#000" opacity="0.35"/><rect x="910" y="702" width="79" height="198" fill="#000" opacity="0.35"/><rect x="993" y="664" width="37" height="236" fill="#000" opacity="0.35"/><rect x="1034" y="646" width="93" height="254" fill="#000" opacity="0.35"/><rect x="1131" y="668" width="29" height="232" fill="#000" opacity="0.35"/><rect x="1164" y="750" width="37" height="150" fill="#000" opacity="0.35"/><rect x="1205" y="616" width="59" height="284" fill="#000" opacity="0.35"/><rect x="1268" y="638" width="35" height="262" fill="#000" opacity="0.35"/><rect x="1307" y="628" width="35" height="272" fill="#000" opacity="0.35"/><rect x="1346" y="722" width="73" height="178" fill="#000" opacity="0.35"/><rect x="1423" y="640" width="31" height="260" fill="#000" opacity="0.35"/><rect x="1458" y="694" width="79" height="206" fill="#000" opacity="0.35"/><rect x="1541" y="628" width="55" height="272" fill="#000" opacity="0.35"/>
  <g font-family="DM Sans, system-ui, -apple-system, Segoe UI, Roboto, sans-serif" fill="#ffffff">
    <text x="80" y="200" font-size="34" font-weight="500" opacity="0.85">White Plains</text>
    <text x="80" y="200" dx="280" font-size="34" font-weight="500" opacity="0.6">East Side and Institutional Anchors</text>
    <text x="80" y="380" font-size="92" font-weight="700" letter-spacing="-1">Old Mamaroneck Road</text>
    <line x1="80" y1="430" x2="320" y2="430" stroke="#fde68a" stroke-width="8"/>
    <text x="80" y="500" font-size="32" font-weight="500" opacity="0.85">A WPCNA neighborhood guide</text>
  </g>
</svg>
