<svg xmlns="http://www.w3.org/2000/svg" viewBox="0 0 1600 900" role="img" aria-label="Prospect Park neighborhood, West Side and Near-Downtown Neighborhoods, White Plains">
  <defs>
    <linearGradient id="g1" x1="0" y1="0" x2="1" y2="1">
      <stop offset="0" stop-color="#0f2c1e"/>
      <stop offset="0.6" stop-color="#166534"/>
      <stop offset="1" stop-color="#22c55e"/>
    </linearGradient>
    <linearGradient id="g2" x1="0" y1="0" x2="0" y2="1">
      <stop offset="0" stop-color="#ffffff" stop-opacity="0.0"/>
      <stop offset="1" stop-color="#ffffff" stop-opacity="0.35"/>
    </linearGradient>
  </defs>
  <rect width="1600" height="900" fill="url(#g1)"/>
  <rect x="0" y="342" width="1600" height="558" fill="url(#g2)" opacity="0.45"/>
        <circle cx="276" cy="342" r="304" fill="#fde68a" opacity="0.4"/>
  <rect x="0" y="670" width="59" height="230" fill="#000" opacity="0.35"/><rect x="63" y="620" width="89" height="280" fill="#000" opacity="0.35"/><rect x="156" y="730" width="33" height="170" fill="#000" opacity="0.35"/><rect x="193" y="648" width="77" height="252" fill="#000" opacity="0.35"/><rect x="274" y="618" width="31" height="282" fill="#000" opacity="0.35"/><rect x="309" y="672" width="41" height="228" fill="#000" opacity="0.35"/><rect x="354" y="730" width="61" height="170" fill="#000" opacity="0.35"/><rect x="419" y="700" width="63" height="200" fill="#000" opacity="0.35"/><rect x="486" y="630" width="85" height="270" fill="#000" opacity="0.35"/><rect x="575" y="648" width="77" height="252" fill="#000" opacity="0.35"/><rect x="656" y="742" width="31" height="158" fill="#000" opacity="0.35"/><rect x="691" y="688" width="73" height="212" fill="#000" opacity="0.35"/><rect x="768" y="682" width="79" height="218" fill="#000" opacity="0.35"/><rect x="851" y="720" width="87" height="180" fill="#000" opacity="0.35"/><rect x="942" y="694" width="45" height="206" fill="#000" opacity="0.35"/><rect x="991" y="732" width="65" height="168" fill="#000" opacity="0.35"/><rect x="1060" y="662" width="41" height="238" fill="#000" opacity="0.35"/><rect x="1105" y="616" width="71" height="284" fill="#000" opacity="0.35"/><rect x="1180" y="674" width="61" height="226" fill="#000" opacity="0.35"/><rect x="1245" y="692" width="49" height="208" fill="#000" opacity="0.35"/><rect x="1298" y="630" width="35" height="270" fill="#000" opacity="0.35"/><rect x="1337" y="708" width="51" height="192" fill="#000" opacity="0.35"/><rect x="1392" y="714" width="77" height="186" fill="#000" opacity="0.35"/><rect x="1473" y="624" width="87" height="276" fill="#000" opacity="0.35"/><rect x="1564" y="722" width="67" height="178" fill="#000" opacity="0.35"/>
  <g font-family="DM Sans, system-ui, -apple-system, Segoe UI, Roboto, sans-serif" fill="#ffffff">
    <text x="80" y="200" font-size="34" font-weight="500" opacity="0.85">White Plains</text>
    <text x="80" y="200" dx="280" font-size="34" font-weight="500" opacity="0.6">West Side and Near-Downtown Neighborhoods</text>
    <text x="80" y="380" font-size="116" font-weight="700" letter-spacing="-1">Prospect Park</text>
    <line x1="80" y1="430" x2="320" y2="430" stroke="#fde68a" stroke-width="8"/>
    <text x="80" y="500" font-size="32" font-weight="500" opacity="0.85">A WPCNA neighborhood guide</text>
  </g>
</svg>
