<svg xmlns="http://www.w3.org/2000/svg" viewBox="0 0 1600 900" role="img" aria-label="Rocky Dell neighborhood, Gedney and the South Side, White Plains">
  <defs>
    <linearGradient id="g1" x1="0" y1="0" x2="1" y2="1">
      <stop offset="0" stop-color="#0c2a2a"/>
      <stop offset="0.6" stop-color="#0f766e"/>
      <stop offset="1" stop-color="#14b8a6"/>
    </linearGradient>
    <linearGradient id="g2" x1="0" y1="0" x2="0" y2="1">
      <stop offset="0" stop-color="#ffffff" stop-opacity="0.0"/>
      <stop offset="1" stop-color="#ffffff" stop-opacity="0.35"/>
    </linearGradient>
  </defs>
  <rect width="1600" height="900" fill="url(#g1)"/>
  <polygon points="0,900 337,567 1600,900" fill="url(#g2)" opacity="0.5"/>
        <circle cx="337" cy="467" r="368" fill="#fcd34d" opacity="0.35"/>
  <rect x="0" y="647" width="74" height="253" fill="#000" opacity="0.35"/><rect x="78" y="693" width="64" height="207" fill="#000" opacity="0.35"/><rect x="146" y="667" width="92" height="233" fill="#000" opacity="0.35"/><rect x="242" y="689" width="28" height="211" fill="#000" opacity="0.35"/><rect x="274" y="655" width="66" height="245" fill="#000" opacity="0.35"/><rect x="344" y="745" width="54" height="155" fill="#000" opacity="0.35"/><rect x="402" y="647" width="68" height="253" fill="#000" opacity="0.35"/><rect x="474" y="613" width="62" height="287" fill="#000" opacity="0.35"/><rect x="540" y="651" width="76" height="249" fill="#000" opacity="0.35"/><rect x="620" y="665" width="70" height="235" fill="#000" opacity="0.35"/><rect x="694" y="719" width="86" height="181" fill="#000" opacity="0.35"/><rect x="784" y="613" width="62" height="287" fill="#000" opacity="0.35"/><rect x="850" y="747" width="30" height="153" fill="#000" opacity="0.35"/><rect x="884" y="653" width="90" height="247" fill="#000" opacity="0.35"/><rect x="978" y="635" width="76" height="265" fill="#000" opacity="0.35"/><rect x="1058" y="657" width="76" height="243" fill="#000" opacity="0.35"/><rect x="1138" y="739" width="62" height="161" fill="#000" opacity="0.35"/><rect x="1204" y="617" width="92" height="283" fill="#000" opacity="0.35"/><rect x="1300" y="699" width="34" height="201" fill="#000" opacity="0.35"/><rect x="1338" y="749" width="86" height="151" fill="#000" opacity="0.35"/><rect x="1428" y="643" width="38" height="257" fill="#000" opacity="0.35"/><rect x="1470" y="721" width="94" height="179" fill="#000" opacity="0.35"/><rect x="1568" y="739" width="56" height="161" fill="#000" opacity="0.35"/>
  <g font-family="DM Sans, system-ui, -apple-system, Segoe UI, Roboto, sans-serif" fill="#ffffff">
    <text x="80" y="200" font-size="34" font-weight="500" opacity="0.85">White Plains</text>
    <text x="80" y="200" dx="280" font-size="34" font-weight="500" opacity="0.6">Gedney and the South Side</text>
    <text x="80" y="380" font-size="116" font-weight="700" letter-spacing="-1">Rocky Dell</text>
    <line x1="80" y1="430" x2="320" y2="430" stroke="#fcd34d" stroke-width="8"/>
    <text x="80" y="500" font-size="32" font-weight="500" opacity="0.85">A WPCNA neighborhood guide</text>
  </g>
</svg>
