<svg xmlns="http://www.w3.org/2000/svg" viewBox="0 0 1600 900" role="img" aria-label="Soundview neighborhood, Gedney and the South Side, White Plains">
  <defs>
    <linearGradient id="g1" x1="0" y1="0" x2="1" y2="1">
      <stop offset="0" stop-color="#0c2a2a"/>
      <stop offset="0.6" stop-color="#0f766e"/>
      <stop offset="1" stop-color="#14b8a6"/>
    </linearGradient>
    <linearGradient id="g2" x1="0" y1="0" x2="0" y2="1">
      <stop offset="0" stop-color="#ffffff" stop-opacity="0.0"/>
      <stop offset="1" stop-color="#ffffff" stop-opacity="0.35"/>
    </linearGradient>
  </defs>
  <rect width="1600" height="900" fill="url(#g1)"/>
  <path d="M0,299 Q1301,-59 1600,478 L1600,900 L0,900 Z" fill="url(#g2)" opacity="0.5"/>
        <circle cx="1301" cy="299" r="179" fill="#fcd34d" opacity="0.4"/>
  <rect x="0" y="682" width="67" height="218" fill="#000" opacity="0.35"/><rect x="71" y="680" width="47" height="220" fill="#000" opacity="0.35"/><rect x="122" y="694" width="65" height="206" fill="#000" opacity="0.35"/><rect x="191" y="736" width="43" height="164" fill="#000" opacity="0.35"/><rect x="238" y="638" width="87" height="262" fill="#000" opacity="0.35"/><rect x="329" y="640" width="77" height="260" fill="#000" opacity="0.35"/><rect x="410" y="626" width="57" height="274" fill="#000" opacity="0.35"/><rect x="471" y="700" width="45" height="200" fill="#000" opacity="0.35"/><rect x="520" y="706" width="85" height="194" fill="#000" opacity="0.35"/><rect x="609" y="684" width="59" height="216" fill="#000" opacity="0.35"/><rect x="672" y="730" width="51" height="170" fill="#000" opacity="0.35"/><rect x="727" y="668" width="71" height="232" fill="#000" opacity="0.35"/><rect x="802" y="658" width="95" height="242" fill="#000" opacity="0.35"/><rect x="901" y="652" width="31" height="248" fill="#000" opacity="0.35"/><rect x="936" y="698" width="85" height="202" fill="#000" opacity="0.35"/><rect x="1025" y="648" width="61" height="252" fill="#000" opacity="0.35"/><rect x="1090" y="654" width="51" height="246" fill="#000" opacity="0.35"/><rect x="1145" y="644" width="83" height="256" fill="#000" opacity="0.35"/><rect x="1232" y="638" width="45" height="262" fill="#000" opacity="0.35"/><rect x="1281" y="632" width="59" height="268" fill="#000" opacity="0.35"/><rect x="1344" y="662" width="91" height="238" fill="#000" opacity="0.35"/><rect x="1439" y="656" width="55" height="244" fill="#000" opacity="0.35"/><rect x="1498" y="734" width="83" height="166" fill="#000" opacity="0.35"/><rect x="1585" y="692" width="61" height="208" fill="#000" opacity="0.35"/>
  <g font-family="DM Sans, system-ui, -apple-system, Segoe UI, Roboto, sans-serif" fill="#ffffff">
    <text x="80" y="200" font-size="34" font-weight="500" opacity="0.85">White Plains</text>
    <text x="80" y="200" dx="280" font-size="34" font-weight="500" opacity="0.6">Gedney and the South Side</text>
    <text x="80" y="380" font-size="116" font-weight="700" letter-spacing="-1">Soundview</text>
    <line x1="80" y1="430" x2="320" y2="430" stroke="#fcd34d" stroke-width="8"/>
    <text x="80" y="500" font-size="32" font-weight="500" opacity="0.85">A WPCNA neighborhood guide</text>
  </g>
</svg>
