<svg xmlns="http://www.w3.org/2000/svg" viewBox="0 0 1600 900" role="img" aria-label="White Plains Reservoir neighborhood, North and Northeast, White Plains">
  <defs>
    <linearGradient id="g1" x1="0" y1="0" x2="1" y2="1">
      <stop offset="0" stop-color="#1e1a3e"/>
      <stop offset="0.6" stop-color="#4338ca"/>
      <stop offset="1" stop-color="#7c3aed"/>
    </linearGradient>
    <linearGradient id="g2" x1="0" y1="0" x2="0" y2="1">
      <stop offset="0" stop-color="#ffffff" stop-opacity="0.0"/>
      <stop offset="1" stop-color="#ffffff" stop-opacity="0.35"/>
    </linearGradient>
  </defs>
  <rect width="1600" height="900" fill="url(#g1)"/>
  <polygon points="0,900 492,737 1600,900" fill="url(#g2)" opacity="0.5"/>
        <circle cx="492" cy="637" r="308" fill="#f0abfc" opacity="0.35"/>
  <rect x="0" y="658" width="59" height="242" fill="#000" opacity="0.35"/><rect x="63" y="652" width="33" height="248" fill="#000" opacity="0.35"/><rect x="100" y="742" width="63" height="158" fill="#000" opacity="0.35"/><rect x="167" y="616" width="73" height="284" fill="#000" opacity="0.35"/><rect x="244" y="722" width="41" height="178" fill="#000" opacity="0.35"/><rect x="289" y="668" width="69" height="232" fill="#000" opacity="0.35"/><rect x="362" y="698" width="87" height="202" fill="#000" opacity="0.35"/><rect x="453" y="680" width="77" height="220" fill="#000" opacity="0.35"/><rect x="534" y="690" width="49" height="210" fill="#000" opacity="0.35"/><rect x="587" y="676" width="29" height="224" fill="#000" opacity="0.35"/><rect x="620" y="646" width="87" height="254" fill="#000" opacity="0.35"/><rect x="711" y="668" width="73" height="232" fill="#000" opacity="0.35"/><rect x="788" y="626" width="37" height="274" fill="#000" opacity="0.35"/><rect x="829" y="732" width="69" height="168" fill="#000" opacity="0.35"/><rect x="902" y="662" width="87" height="238" fill="#000" opacity="0.35"/><rect x="993" y="716" width="27" height="184" fill="#000" opacity="0.35"/><rect x="1024" y="698" width="29" height="202" fill="#000" opacity="0.35"/><rect x="1057" y="700" width="45" height="200" fill="#000" opacity="0.35"/><rect x="1106" y="750" width="47" height="150" fill="#000" opacity="0.35"/><rect x="1157" y="648" width="59" height="252" fill="#000" opacity="0.35"/><rect x="1220" y="614" width="61" height="286" fill="#000" opacity="0.35"/><rect x="1285" y="632" width="83" height="268" fill="#000" opacity="0.35"/><rect x="1372" y="662" width="45" height="238" fill="#000" opacity="0.35"/><rect x="1421" y="664" width="53" height="236" fill="#000" opacity="0.35"/><rect x="1478" y="674" width="41" height="226" fill="#000" opacity="0.35"/><rect x="1523" y="644" width="29" height="256" fill="#000" opacity="0.35"/><rect x="1556" y="678" width="41" height="222" fill="#000" opacity="0.35"/>
  <g font-family="DM Sans, system-ui, -apple-system, Segoe UI, Roboto, sans-serif" fill="#ffffff">
    <text x="80" y="200" font-size="34" font-weight="500" opacity="0.85">White Plains</text>
    <text x="80" y="200" dx="280" font-size="34" font-weight="500" opacity="0.6">North and Northeast</text>
    <text x="80" y="380" font-size="76" font-weight="700" letter-spacing="-1">White Plains Reservoir</text>
    <line x1="80" y1="430" x2="320" y2="430" stroke="#f0abfc" stroke-width="8"/>
    <text x="80" y="500" font-size="32" font-weight="500" opacity="0.85">A WPCNA neighborhood guide</text>
  </g>
</svg>
