<svg xmlns="http://www.w3.org/2000/svg" viewBox="0 0 1600 900" role="img" aria-label="Woodcrest Heights neighborhood, North and Northeast, White Plains">
  <defs>
    <linearGradient id="g1" x1="0" y1="0" x2="1" y2="1">
      <stop offset="0" stop-color="#1e1a3e"/>
      <stop offset="0.6" stop-color="#4338ca"/>
      <stop offset="1" stop-color="#7c3aed"/>
    </linearGradient>
    <linearGradient id="g2" x1="0" y1="0" x2="0" y2="1">
      <stop offset="0" stop-color="#ffffff" stop-opacity="0.0"/>
      <stop offset="1" stop-color="#ffffff" stop-opacity="0.35"/>
    </linearGradient>
  </defs>
  <rect width="1600" height="900" fill="url(#g1)"/>
  <polygon points="0,900 1295,744 1600,900" fill="url(#g2)" opacity="0.5"/>
        <circle cx="1295" cy="644" r="186" fill="#f0abfc" opacity="0.35"/>
  <rect x="0" y="690" width="55" height="210" fill="#000" opacity="0.35"/><rect x="59" y="668" width="29" height="232" fill="#000" opacity="0.35"/><rect x="92" y="726" width="75" height="174" fill="#000" opacity="0.35"/><rect x="171" y="744" width="83" height="156" fill="#000" opacity="0.35"/><rect x="258" y="626" width="63" height="274" fill="#000" opacity="0.35"/><rect x="325" y="708" width="77" height="192" fill="#000" opacity="0.35"/><rect x="406" y="674" width="61" height="226" fill="#000" opacity="0.35"/><rect x="471" y="720" width="47" height="180" fill="#000" opacity="0.35"/><rect x="522" y="646" width="49" height="254" fill="#000" opacity="0.35"/><rect x="575" y="628" width="73" height="272" fill="#000" opacity="0.35"/><rect x="652" y="722" width="77" height="178" fill="#000" opacity="0.35"/><rect x="733" y="628" width="49" height="272" fill="#000" opacity="0.35"/><rect x="786" y="638" width="93" height="262" fill="#000" opacity="0.35"/><rect x="883" y="740" width="89" height="160" fill="#000" opacity="0.35"/><rect x="976" y="750" width="89" height="150" fill="#000" opacity="0.35"/><rect x="1069" y="644" width="49" height="256" fill="#000" opacity="0.35"/><rect x="1122" y="646" width="53" height="254" fill="#000" opacity="0.35"/><rect x="1179" y="676" width="89" height="224" fill="#000" opacity="0.35"/><rect x="1272" y="722" width="47" height="178" fill="#000" opacity="0.35"/><rect x="1323" y="628" width="73" height="272" fill="#000" opacity="0.35"/><rect x="1400" y="662" width="89" height="238" fill="#000" opacity="0.35"/><rect x="1493" y="668" width="27" height="232" fill="#000" opacity="0.35"/><rect x="1524" y="646" width="29" height="254" fill="#000" opacity="0.35"/><rect x="1557" y="696" width="61" height="204" fill="#000" opacity="0.35"/>
  <g font-family="DM Sans, system-ui, -apple-system, Segoe UI, Roboto, sans-serif" fill="#ffffff">
    <text x="80" y="200" font-size="34" font-weight="500" opacity="0.85">White Plains</text>
    <text x="80" y="200" dx="280" font-size="34" font-weight="500" opacity="0.6">North and Northeast</text>
    <text x="80" y="380" font-size="92" font-weight="700" letter-spacing="-1">Woodcrest Heights</text>
    <line x1="80" y1="430" x2="320" y2="430" stroke="#f0abfc" stroke-width="8"/>
    <text x="80" y="500" font-size="32" font-weight="500" opacity="0.85">A WPCNA neighborhood guide</text>
  </g>
</svg>
